<svg xmlns="http://www.w3.org/2000/svg" width="24" height="24" fill="none"><path d="M15.725 13.525l-1.1-1.1c.433-1.183.208-2.167-.675-2.95s-1.842-.983-2.875-.6l-1.1-1.1a3.02 3.02 0 0 1 .95-.4c.35-.083.708-.125 1.075-.125 1.183 0 2.188.412 3.012 1.238s1.238 1.829 1.238 3.012a4.37 4.37 0 0 1-.137 1.088c-.092.358-.221.671-.388.938h0zm3.225 3.225l-1-1a11.72 11.72 0 0 0 2.137-2.012c.608-.742 1.054-1.488 1.338-2.238-.833-1.85-2.083-3.312-3.75-4.387S14.2 5.5 12.25 5.5c-.7 0-1.417.067-2.15.2s-1.308.292-1.725.475L7.225 5c.583-.267 1.329-.5 2.238-.7s1.796-.3 2.662-.3c2.383 0 4.563.679 6.538 2.037S22.083 9.217 23 11.5a12.35 12.35 0 0 1-1.675 2.925c-.683.883-1.475 1.658-2.375 2.325zm1.45 5.65l-4.2-4.125c-.583.233-1.242.413-1.975.538S12.75 19 12 19a11.46 11.46 0 0 1-6.625-2.038C3.392 15.604 1.933 13.783 1 11.5c.333-.867.796-1.713 1.388-2.537S3.7 7.35 4.55 6.6L1.4 3.45l1.05-1.075L21.375 21.3l-.975 1.1zM5.575 7.65c-.617.45-1.213 1.042-1.787 1.775S2.8 10.85 2.55 11.5a10.01 10.01 0 0 0 3.838 4.387C8.096 16.963 10.033 17.5 12.2 17.5c.55 0 1.092-.033 1.625-.1s.933-.167 1.2-.3l-1.6-1.6a2.62 2.62 0 0 1-.675.188 4.87 4.87 0 0 1-.75.063 4.13 4.13 0 0 1-3-1.225c-.833-.817-1.25-1.825-1.25-3.025 0-.25.021-.5.063-.75A3.06 3.06 0 0 1 8 10.075L5.575 7.65z" fill="#899cb1"/></svg>